<?xml version="1.0" encoding="UTF-8"?>
<svg width="16px" height="16px" viewBox="0 0 16 16" version="1.1" xmlns="http://www.w3.org/2000/svg" xmlns:xlink="http://www.w3.org/1999/xlink">
    <!-- Generator: Sketch 43.1 (39012) - http://www.bohemiancoding.com/sketch -->
    <title>video collection</title>
    <desc>Created with Sketch.</desc>
    <defs></defs>
    <g id="Paginas-Clave" stroke="none" stroke-width="1" fill="none" fill-rule="evenodd">
        <g id="01-Home" transform="translate(-76.000000, -2930.000000)" fill="#836DDB">
            <g id="Colecciones" transform="translate(50.000000, 2400.000000)">
                <g id="programa" transform="translate(0.000000, 120.000000)">
                    <g id="meta" transform="translate(0.000000, 394.000000)">
                        <g id="Group-2" transform="translate(26.000000, 16.000000)">
                            <path d="M1.6,3.2 L0,3.2 L0,14.4 C0,15.28 0.72,16 1.6,16 L12.8,16 L12.8,14.4 L1.6,14.4 L1.6,3.2 L1.6,3.2 Z M14.4,0 L4.8,0 C3.92,0 3.2,0.72 3.2,1.6 L3.2,11.2 C3.2,12.08 3.92,12.8 4.8,12.8 L14.4,12.8 C15.28,12.8 16,12.08 16,11.2 L16,1.6 C16,0.72 15.28,0 14.4,0 L14.4,0 Z M8,10 L8,2.8 L12.8,6.4 L8,10 L8,10 Z" id="video-collection"></path>
                        </g>
                    </g>
                </g>
            </g>
        </g>
    </g>
</svg>