<?xml version="1.0" encoding="UTF-8"?>
<svg width="184px" height="32px" viewBox="0 0 184 32" version="1.1" xmlns="http://www.w3.org/2000/svg" xmlns:xlink="http://www.w3.org/1999/xlink">
    <!-- Generator: Sketch 43.1 (39012) - http://www.bohemiancoding.com/sketch -->
    <title>Logo</title>
    <desc>Created with Sketch.</desc>
    <defs>
        <polygon id="path-1" points="6.76764039e-16 26.8000333 6.76764039e-16 0.1507 17.939797 0.1507 17.939797 26.8000333 0 26.8000333"></polygon>
    </defs>
    <g id="YogaParaMiLogo" stroke="none" stroke-width="1" fill="none" fill-rule="evenodd">
        <g id="01-Home" transform="translate(-49.000000, -20.000000)">
            <g id="Top-Menu-Not-Login" transform="translate(0.000000, 19.000000)">
                <g id="Topmenu">
                    <g id="Logo" transform="translate(49.000000, 0.000000)">
                        <path d="M47.3300781,26 L47.3300781,20.3066406 L42.5351562,11.78125 L44.1074219,11.78125 L48.0917969,19.0371094 L52.125,11.78125 L53.6777344,11.78125 L48.7949219,20.2773438 L48.7949219,26 L47.3300781,26 Z M61.9589844,26.2050781 C59.8756406,26.2050781 58.2252665,25.545905 57.0078125,24.2275391 C55.7903585,22.9091731 55.1816406,21.1367299 55.1816406,18.9101562 C55.1816406,16.6770722 55.7903585,14.8899807 57.0078125,13.5488281 C58.2252665,12.2076756 59.8788958,11.5371094 61.96875,11.5371094 C63.3229234,11.5371094 64.5078074,11.8430959 65.5234375,12.4550781 C66.5390676,13.0670604 67.3203098,13.9296819 67.8671875,15.0429688 C68.4140652,16.1562556 68.6875,17.4453052 68.6875,18.9101562 C68.6875,21.1367299 68.0836649,22.9091731 66.8759766,24.2275391 C65.6682882,25.545905 64.0293072,26.2050781 61.9589844,26.2050781 Z M61.9492188,25.0039062 C63.5833415,25.0039062 64.8561152,24.4570367 65.7675781,23.3632812 C66.679041,22.2695258 67.1347656,20.7851656 67.1347656,18.9101562 C67.1347656,17.0351469 66.6774134,15.537766 65.7626953,14.4179688 C64.8479772,13.2981715 63.5800862,12.7382812 61.9589844,12.7382812 C60.3313721,12.7382812 59.052088,13.2997991 58.1210938,14.4228516 C57.1900995,15.5459041 56.7246094,17.0416573 56.7246094,18.9101562 C56.7246094,20.7786552 57.1868443,22.2613877 58.1113281,23.3583984 C59.0358119,24.4554091 60.315096,25.0039062 61.9492188,25.0039062 Z M77.9355469,26.2050781 C75.6959523,26.2050781 73.9479229,25.5670637 72.6914062,24.2910156 C71.4348896,23.0149676 70.8066406,21.2897244 70.8066406,19.1152344 C70.8066406,17.6243415 71.1061168,16.3043677 71.7050781,15.1552734 C72.3040395,14.0061792 73.1536403,13.1158886 74.2539062,12.484375 C75.3541722,11.8528614 76.6204355,11.5371094 78.0527344,11.5371094 C79.8496184,11.5371094 81.3925717,12.012365 82.6816406,12.9628906 L82.0761719,13.9882812 C80.8326761,13.1549438 79.498054,12.7382812 78.0722656,12.7382812 C76.3339757,12.7382812 74.9391329,13.3225853 73.8876953,14.4912109 C72.8362578,15.6598366 72.3105469,17.1881416 72.3105469,19.0761719 C72.3105469,20.8860768 72.8069612,22.326492 73.7998047,23.3974609 C74.7926482,24.4684298 76.1842358,25.0039062 77.9746094,25.0039062 C79.4134187,25.0039062 80.604813,24.8053405 81.5488281,24.4082031 L81.5488281,19.90625 L77.7597656,19.90625 L77.7597656,18.6855469 L82.9550781,18.6855469 L82.9550781,25.1992188 C81.5227793,25.869795 79.8496189,26.2050781 77.9355469,26.2050781 Z M88.4824219,21.0292969 L94.0097656,21.0292969 C93.0917923,18.3990754 92.1673224,15.7884244 91.2363281,13.1972656 C90.8782534,14.2194062 90.3606805,15.6940008 89.6835938,17.6210938 C89.006507,19.5481867 88.6061204,20.6842431 88.4824219,21.0292969 Z M85.0742188,26 L90.4160156,11.78125 L92.0664062,11.78125 L97.4277344,26 L95.8554688,26 L94.4296875,22.1523438 L88.0917969,22.1523438 L86.6757812,26 L85.0742188,26 Z M107.291016,18.1484375 L110.171875,18.1484375 C111.428392,18.1484375 112.333331,17.953127 112.886719,17.5625 C113.440107,17.171873 113.716797,16.5110724 113.716797,15.5800781 C113.716797,15.0917944 113.648438,14.6816423 113.511719,14.3496094 C113.374999,14.0175765 113.161785,13.7506521 112.87207,13.5488281 C112.582355,13.3470042 112.232424,13.2037765 111.822266,13.1191406 C111.412107,13.0345048 110.91081,12.9921875 110.318359,12.9921875 L107.291016,12.9921875 L107.291016,18.1484375 Z M105.835938,26 L105.835938,11.78125 L109.986328,11.78125 C110.858728,11.78125 111.602536,11.8430983 112.217773,11.9667969 C112.833011,12.0904954 113.368487,12.2955715 113.824219,12.5820312 C114.27995,12.868491 114.618488,13.2574845 114.839844,13.7490234 C115.061199,14.2405624 115.171875,14.8476526 115.171875,15.5703125 C115.171875,16.9179755 114.76335,17.8847627 113.946289,18.4707031 C113.129228,19.0566436 111.874357,19.3496094 110.181641,19.3496094 L107.291016,19.3496094 L107.291016,26 L105.835938,26 Z M119.761719,21.0292969 L125.289062,21.0292969 C124.371089,18.3990754 123.446619,15.7884244 122.515625,13.1972656 C122.15755,14.2194062 121.639977,15.6940008 120.962891,17.6210938 C120.285804,19.5481867 119.885417,20.6842431 119.761719,21.0292969 Z M116.353516,26 L121.695312,11.78125 L123.345703,11.78125 L128.707031,26 L127.134766,26 L125.708984,22.1523438 L119.371094,22.1523438 L117.955078,26 L116.353516,26 Z M132.730469,18.3535156 L135.787109,18.3535156 C136.841802,18.3535156 137.637693,18.1289085 138.174805,17.6796875 C138.711917,17.2304665 138.980469,16.5306037 138.980469,15.5800781 C138.980469,15.1048153 138.920248,14.7028011 138.799805,14.3740234 C138.679361,14.0452458 138.492189,13.7783213 138.238281,13.5732422 C137.984374,13.368163 137.670249,13.2200525 137.295898,13.1289062 C136.921548,13.03776 136.470706,12.9921875 135.943359,12.9921875 L132.730469,12.9921875 L132.730469,18.3535156 Z M131.265625,26 L131.265625,11.78125 L135.660156,11.78125 C136.447921,11.78125 137.126625,11.8430983 137.696289,11.9667969 C138.265953,12.0904954 138.763995,12.2955715 139.19043,12.5820312 C139.616864,12.868491 139.935871,13.2558569 140.147461,13.7441406 C140.359051,14.2324243 140.464844,14.8248663 140.464844,15.5214844 C140.464844,16.4654995 140.227216,17.2483693 139.751953,17.8701172 C139.27669,18.4918651 138.567062,18.8710931 137.623047,19.0078125 C137.902996,19.072917 138.145507,19.1591792 138.350586,19.2666016 C138.555665,19.374024 138.731445,19.4928379 138.87793,19.6230469 C139.024415,19.7532559 139.164387,19.9355457 139.297852,20.1699219 C139.431316,20.404298 139.543619,20.6305328 139.634766,20.8486328 C139.725912,21.0667329 139.843098,21.3678366 139.986328,21.7519531 L141.558594,26 L140.074219,26 L138.589844,21.9179688 C138.466145,21.5729149 138.358724,21.296225 138.267578,21.0878906 C138.176432,20.8795563 138.072266,20.6777354 137.955078,20.4824219 C137.83789,20.2871084 137.722331,20.1373703 137.608398,20.0332031 C137.494466,19.9290359 137.352865,19.8362634 137.183594,19.7548828 C137.014322,19.6735022 136.827149,19.6197918 136.62207,19.59375 C136.416991,19.5677082 136.171225,19.5546875 135.884766,19.5546875 L132.720703,19.5546875 L132.720703,26 L131.265625,26 Z M146.431641,21.0292969 L151.958984,21.0292969 C151.041011,18.3990754 150.116541,15.7884244 149.185547,13.1972656 C148.827472,14.2194062 148.309899,15.6940008 147.632812,17.6210938 C146.955726,19.5481867 146.555339,20.6842431 146.431641,21.0292969 Z M143.023438,26 L148.365234,11.78125 L150.015625,11.78125 L155.376953,26 L153.804688,26 L152.378906,22.1523438 L146.041016,22.1523438 L144.625,26 L143.023438,26 Z M163.785156,26 L163.785156,11.78125 L165.591797,11.78125 C165.767579,12.1848979 166.527663,13.9296721 167.87207,17.015625 C169.216478,20.1015779 170.230465,22.4648355 170.914062,24.1054688 C171.610681,22.4648355 172.645826,20.1064607 174.019531,17.0302734 C175.393236,13.9540862 176.174478,12.2044292 176.363281,11.78125 L178.042969,11.78125 L178.042969,26 L176.646484,26 L176.646484,14.1640625 L176.041016,15.6679688 L171.392578,26 L170.416016,26 L165.884766,15.7070312 L165.191406,13.9296875 L165.191406,26 L163.785156,26 Z M182.369141,26 L182.369141,11.78125 L183.833984,11.78125 L183.833984,26 L182.369141,26 Z" id="YOGA-PARA-MI" fill="#333333"></path>
                        <g id="Page-1">
                            <path d="M24.125693,29.3361933 C24.125693,29.3361933 24.125693,29.4879933 23.1664372,29.4879933 C22.2079256,29.4879933 22.773507,28.37406 22.773507,28.37406 C22.773507,28.37406 23.0979721,28.1041933 23.217786,26.1637933 C23.3376,24.2219267 24.0750884,23.0911267 24.0750884,23.0911267 C24.0750884,23.0911267 23.7230884,22.9473933 22.3269953,23.4467933 C20.7344372,24.1375933 17.2062512,23.69906 17.2062512,23.56486 C16.6756465,24.0877267 11.7171349,25.74946 11.3829953,26.07946 C11.0496,26.4087267 9.3960186,26.3493267 9.3960186,26.3493267 C9.3960186,26.3493267 7.90615814,27.6143267 6.99825116,27.9355267 C6.3240186,28.17386 5.66541395,28.53686 5.27620465,28.8015933 C8.09815814,31.3095933 11.8242977,32.8495933 15.9240186,32.8495933 C19.5348093,32.8495933 22.8546233,31.6505933 25.5269953,29.65446 C25.441414,29.6383267 25.3766698,29.62366 25.3766698,29.62366 C25.1109953,29.3611267 24.125693,29.3361933 24.125693,29.3361933" id="Fill-1" fill="#67E6D3"></path>
                            <g id="Group-5" transform="translate(0.000000, 0.582927)">
                                <mask id="mask-2" fill="white">
                                    <use xlink:href="#path-1"></use>
                                </mask>
                                <g id="Clip-4"></g>
                                <path d="M5.37138605,26.7223 C6.53603721,25.3942333 9.23147907,23.9547 10.0299907,23.9547 C10.8292465,23.9547 14.8939907,21.1189 14.8939907,20.8710333 C14.8939907,20.6246333 15.9678512,19.1161667 17.1778977,18.7568333 C18.3879442,18.3960333 17.7940837,16.6631667 17.7940837,16.6631667 C17.4978977,15.6277 16.9836651,12.5110333 16.9836651,12.5110333 C16.9836651,12.5110333 15.3278512,13.5919667 14.7808744,12.0160333 C14.2316651,10.4408333 15.4536186,9.36063333 15.7847814,9.23743333 C16.1159442,9.1135 16.9836651,9.18096667 16.9836651,9.18096667 C17.4405953,8.7307 17.691386,8.85536667 17.691386,8.85536667 C17.691386,8.85536667 17.8625488,7.6065 17.6229209,7.11003333 C17.383293,6.61503333 17.3721302,4.98336667 17.3721302,4.98336667 C17.3721302,4.9049 17.3721302,3.2175 16.9382698,2.83543333 C16.287107,2.29423333 16.2082233,1.50736667 16.2082233,1.29323333 C16.2082233,1.07983333 16.4247814,1.18103333 16.4247814,1.18103333 C16.4247814,1.18103333 16.3838512,1.07103333 16.3444093,0.903833333 C16.203014,0.900166667 16.0653395,0.884033333 15.9232,0.884033333 C7.12915349,0.884033333 -0.00014883721,7.90936667 -0.00014883721,16.5751667 C-0.00014883721,20.8409667 1.73306047,24.7049 4.53715349,27.5333667 C4.7767814,27.3427 5.0536186,27.0845667 5.37138605,26.7223" id="Fill-3" fill="#67E6D3" mask="url(#mask-2)"></path>
                            </g>
                            <path d="M31.8473674,17.1580933 C31.8473674,9.19629333 25.8246698,2.63589333 18.0285767,1.61876 C18.2309953,2.38436 18.2510884,3.26069333 18.2510884,3.26069333 C19.4276465,5.83689333 19.6040186,7.31089333 19.6040186,7.31089333 C19.7498791,7.45462667 19.7082047,7.98629333 19.7082047,7.98629333 C20.2551814,9.45442667 20.1867163,12.1384267 20.1867163,12.1384267 C20.1867163,12.1384267 20.0669023,12.2902267 21.2829023,13.75836 C22.773507,15.4956267 21.9162047,16.2560933 21.9162047,16.2560933 C21.9162047,16.2560933 22.1908093,17.6736267 21.6602047,18.3988933 C21.1288558,19.1256267 20.7515535,20.8122933 20.7515535,20.8122933 C20.7515535,20.8122933 24.0058791,20.3744933 25.5649488,20.94796 C27.1232744,21.52216 25.8730419,24.40856 25.2397395,25.26876 C24.605693,26.12896 24.4181581,27.3448267 24.4181581,27.8852933 C24.4181581,28.28716 25.5746233,28.88556 26.1662512,29.16496 C29.6371349,26.2866267 31.8473674,21.9782933 31.8473674,17.1580933" id="Fill-6" fill="#67E6D3"></path>
                        </g>
                    </g>
                </g>
            </g>
        </g>
    </g>
</svg>