<?xml version="1.0" encoding="UTF-8"?>
<svg width="16px" height="16px" viewBox="0 0 16 16" version="1.1" xmlns="http://www.w3.org/2000/svg" xmlns:xlink="http://www.w3.org/1999/xlink">
    <!-- Generator: Sketch 43.1 (39012) - http://www.bohemiancoding.com/sketch -->
    <title>ic_schedule</title>
    <desc>Created with Sketch.</desc>
    <defs></defs>
    <g id="Paginas-Clave" stroke="none" stroke-width="1" fill="none" fill-rule="evenodd">
        <g id="01-Home" transform="translate(-78.000000, -1679.000000)" fill="#836DDB">
            <g id="Clases-Recomendadas" transform="translate(0.000000, 1195.000000)">
                <g id="Row" transform="translate(47.000000, 161.000000)">
                    <g id="Group-4-Copy">
                        <g id="Group-2" transform="translate(31.000000, 323.000000)">
                            <g id="ic_schedule">
                                <path d="M7.992,0 C3.576,0 0,3.584 0,8 C0,12.416 3.576,16 7.992,16 C12.416,16 16,12.416 16,8 C16,3.584 12.416,0 7.992,0 L7.992,0 Z M8,14.4 C4.464,14.4 1.6,11.536 1.6,8 C1.6,4.464 4.464,1.6 8,1.6 C11.536,1.6 14.4,4.464 14.4,8 C14.4,11.536 11.536,14.4 8,14.4 L8,14.4 Z" id="Shape"></path>
                                <polygon id="Shape" points="8.4 4 7.2 4 7.2 8.8 11.4 11.32 12 10.336 8.4 8.2"></polygon>
                            </g>
                        </g>
                    </g>
                </g>
            </g>
        </g>
    </g>
</svg>